<?xml version="1.0" encoding="utf-8"?>
<!-- Generator: Adobe Illustrator 22.0.1, SVG Export Plug-In . SVG Version: 6.00 Build 0)  -->
<svg version="1.1" id="圖層_1" xmlns="http://www.w3.org/2000/svg" xmlns:xlink="http://www.w3.org/1999/xlink" x="0px" y="0px"
	 viewBox="0 0 32 32" style="enable-background:new 0 0 32 32;" xml:space="preserve">
<style type="text/css">
	.st0{fill:#FA7267;}
</style>
<path class="st0" d="M16,1C7.7,1,1,7.7,1,16s6.7,15,15,15s15-6.7,15-15S24.3,1,16,1z M16,27.1c-6.2,0-11.1-5-11.1-11.1
	c0-6.2,5-11.1,11.1-11.1c6.2,0,11.1,5,11.1,11.1C27.1,22.2,22.2,27.1,16,27.1z M16,8.3c-4.3,0-7.7,3.5-7.7,7.7s3.5,7.7,7.7,7.7
	s7.7-3.5,7.7-7.7S20.3,8.3,16,8.3z M16,19.9c-2.1,0-3.9-1.7-3.9-3.9s1.7-3.9,3.9-3.9s3.9,1.7,3.9,3.9S18.1,19.9,16,19.9z"/>
</svg>
