<?xml version="1.0" encoding="utf-8"?>
<!-- Generator: Adobe Illustrator 22.0.1, SVG Export Plug-In . SVG Version: 6.00 Build 0)  -->
<svg version="1.1" id="圖層_1" xmlns="http://www.w3.org/2000/svg" xmlns:xlink="http://www.w3.org/1999/xlink" x="0px" y="0px"
	 viewBox="0 0 32 32" style="enable-background:new 0 0 32 32;" xml:space="preserve">
<style type="text/css">
	.st0{fill:#FA7267;}
</style>
<path class="st0" d="M16,0C7.2,0,0,7.2,0,16s7.2,16,16,16s16-7.2,16-16S24.8,0,16,0z M16,27.9C9.4,27.9,4.1,22.6,4.1,16
	C4.1,9.4,9.4,4.1,16,4.1c6.6,0,11.9,5.3,11.9,11.9C27.9,22.6,22.6,27.9,16,27.9z M16,7.7c-4.6,0-8.3,3.7-8.3,8.3s3.7,8.3,8.3,8.3
	s8.3-3.7,8.3-8.3S20.6,7.7,16,7.7z M16,20.1c-2.3,0-4.1-1.9-4.1-4.1s1.9-4.1,4.1-4.1s4.1,1.9,4.1,4.1S18.3,20.1,16,20.1z"/>
</svg>
